<svg xmlns="http://www.w3.org/2000/svg" viewBox="0 0 500 500"><g id="freepik--background-complete--inject-7"><path d="M75.54,312.35a3.39,3.39,0,0,1,3.31-.11c.51.27,1,.59,1.51.83a5.75,5.75,0,0,1,1.48.9,3.38,3.38,0,0,1,.91,1.46,6.66,6.66,0,0,1,.18,1.72l.11,3.46,0,0,14.12-.49-.09.09-.17-4.54a3.42,3.42,0,0,1,.84-2.17,16.83,16.83,0,0,1,3.9-2.44,3.46,3.46,0,0,1,2.35.17l4,2.11-.31.09,6.59-12.5.13.46-4-2.14a3.67,3.67,0,0,1-1.55-1.94,4,4,0,0,1-.22-1.24l0-1.12,0-1.13a3.83,3.83,0,0,1,.12-1.26,3.73,3.73,0,0,1,1.44-2.07l3.86-2.42-.14.61-7.48-12,.67.15-3.89,2.42a3.73,3.73,0,0,1-2.54.37,3.88,3.88,0,0,1-1.21-.46l-1-.56-1-.5A3.85,3.85,0,0,1,95.24,275l-.13-4.57.47.44-14.12.39.39-.42.1,4.57a3.77,3.77,0,0,1-.91,2.3,4,4,0,0,1-1,.78l-1,.58-1,.58a3.61,3.61,0,0,1-1.13.51,3.69,3.69,0,0,1-2.43-.22l-4-2.19.36-.11-6.77,12.41-.07-.22,4,2.19a3.4,3.4,0,0,1,1.41,1.82,8.15,8.15,0,0,1,.21,2.29,8.34,8.34,0,0,1-.09,2.28,3.37,3.37,0,0,1-1.3,1.86l-3.87,2.39,0-.07,7.41,12h0Zm0,0-3.68,2.29h0l-7.49-12,0,0,0,0,3.85-2.41a3.26,3.26,0,0,0,1.23-1.79,8,8,0,0,0,.06-2.24,8.13,8.13,0,0,0-.23-2.22A3.23,3.23,0,0,0,68,292.24l-4-2.12-.14-.07.07-.14,6.59-12.51.12-.24.24.13,4,2.1a3,3,0,0,0,2,.16,3,3,0,0,0,.92-.43l1-.62,1-.61a3.21,3.21,0,0,0,.78-.64,3,3,0,0,0,.71-1.86L81,270.87l0-.4.41,0L95.55,270H96l0,.46.15,4.51a2.84,2.84,0,0,0,.82,1.73,3.15,3.15,0,0,0,.79.56l1,.51,1,.57a2.76,2.76,0,0,0,.9.35,2.81,2.81,0,0,0,1.87-.29l3.86-2.36.41-.26.25.41,7.42,12,.23.38-.38.23-3.84,2.38a2.8,2.8,0,0,0-1.11,1.58,3.31,3.31,0,0,0-.11,1l0,1.15,0,1.14a3.08,3.08,0,0,0,.16,1,3,3,0,0,0,1.2,1.56l4,2.17.3.16-.16.3-6.77,12.4-.11.21-.2-.11-4-2.17a3.16,3.16,0,0,0-2.1-.18,8,8,0,0,0-2,1,8.35,8.35,0,0,0-1.81,1.27,3.09,3.09,0,0,0-.8,2l.1,4.54v.09h-.09L83,320.65h0v0l-.1-3.46a6.13,6.13,0,0,0-.16-1.71,3.39,3.39,0,0,0-.89-1.44,5.48,5.48,0,0,0-1.46-.9c-.52-.25-1-.57-1.51-.84A3.35,3.35,0,0,0,75.54,312.35Z" style="fill:#ebebeb"></path><path d="M78.45,291.42a11.83,11.83,0,0,1,21.76-.84,11.82,11.82,0,0,1-6,15.87,11.89,11.89,0,0,1-9.11.12,11.76,11.76,0,0,1-6.43-6.27A11.63,11.63,0,0,1,78.45,291.42Zm0,0a11.53,11.53,0,0,0,.36,8.82,11.32,11.32,0,0,0,20.83-.81,11.34,11.34,0,0,0-6.36-14.5,11.43,11.43,0,0,0-8.73.11A11.7,11.7,0,0,0,78.45,291.42Z" style="fill:#ebebeb"></path><path d="M412.12,216.78l-4.94-8.57-2.63,1.52a2.35,2.35,0,0,1-2.46-.09,14.87,14.87,0,0,0-1.29-.74,2.35,2.35,0,0,1-1.3-2.09v-3h-9.9v3a2.35,2.35,0,0,1-1.3,2.09,14.69,14.69,0,0,0-1.28.74,2.36,2.36,0,0,1-2.47.09l-2.62-1.52L377,216.78l2.64,1.52a2.36,2.36,0,0,1,1.15,2.18c0,.25,0,.49,0,.73s0,.49,0,.73a2.37,2.37,0,0,1-1.15,2.18L377,225.64l4.95,8.58,2.63-1.52a2.36,2.36,0,0,1,2.47.08,12.36,12.36,0,0,0,1.27.74,2.37,2.37,0,0,1,1.3,2.09v3h9.9v-3a2.37,2.37,0,0,1,1.3-2.09,12.51,12.51,0,0,0,1.28-.74,2.36,2.36,0,0,1,2.47-.08l2.63,1.52,4.94-8.58-2.63-1.52a2.35,2.35,0,0,1-1.15-2.17c0-.25,0-.49,0-.74s0-.48,0-.73a2.35,2.35,0,0,1,1.16-2.18Zm-9.46,4.43a8.11,8.11,0,1,1-8.1-8.11A8.11,8.11,0,0,1,402.66,221.21Z" style="fill:#ebebeb"></path><path d="M74.33,341.06l-5-8.58L66.76,334a2.36,2.36,0,0,1-2.47-.09c-.41-.26-.84-.51-1.28-.74a2.35,2.35,0,0,1-1.3-2.09v-3H51.8v3a2.35,2.35,0,0,1-1.3,2.09c-.44.23-.87.48-1.28.74a2.36,2.36,0,0,1-2.47.09l-2.62-1.52-5,8.58,2.64,1.51A2.37,2.37,0,0,1,43,344.76c0,.24,0,.48,0,.73s0,.48,0,.72a2.36,2.36,0,0,1-1.14,2.18l-2.65,1.53,5,8.57L46.76,357a2.36,2.36,0,0,1,2.47.09c.41.27.84.51,1.27.74a2.33,2.33,0,0,1,1.3,2.09v3h9.91v-3A2.33,2.33,0,0,1,63,357.8c.43-.23.86-.47,1.27-.74a2.36,2.36,0,0,1,2.47-.09l2.63,1.52,5-8.57-2.64-1.52a2.34,2.34,0,0,1-1.14-2.18c0-.24,0-.49,0-.73s0-.49,0-.73a2.37,2.37,0,0,1,1.15-2.19Zm-9.47,4.43a8.11,8.11,0,1,1-8.1-8.12A8.1,8.1,0,0,1,64.86,345.49Z" style="fill:#ebebeb"></path><path d="M130.87,127l-87.61-.13s4.36-5.67,9.17-6.37c0,0,9.38-27.79,25-28C92,92.4,97.78,109.7,97.78,109.7s6.75-7.74,13.18-4.19S121,119.22,121,119.22,128.25,123.13,130.87,127Z" style="fill:#ebebeb"></path><path d="M346,94.35l110.79.17s0-7.08-15.25-8.48c0,0-13.89-31-35.17-26.84C393.07,61.77,386.27,80,386.27,80s-10-14.33-18-11.57-12.79,18-12.79,18S347.21,90.35,346,94.35Z" style="fill:#ebebeb"></path><path d="M157.88,61.58l75.33.12s-7.1-6.63-10.26-6.63-12.34-22.24-24.13-21.31-18.06,17.46-18.06,17.46S166.44,46.71,157.88,61.58Z" style="fill:#ebebeb"></path><path d="M332.66,152.61l64.42.1s-3.2-4.18-6.73-4.7c0,0-6.83-20.46-18.33-20.62-10.69-.15-15,12.55-15,12.55s-4.94-5.71-9.68-3.11-7.42,10.06-7.42,10.06S334.59,149.75,332.66,152.61Z" style="fill:#ebebeb"></path><polygon points="95.45 329.77 117.26 326.09 136.14 306.87 169.9 341.97 193.26 327.46 209.73 340.85 242 305.4 267.4 303.05 294.62 262.76 324.21 292.4 341.68 265.36 352.58 263.8 367.08 236.93 395.4 283.8 435 437.82 44.48 437.82 95.45 329.77" style="fill:#dbdbdb"></polygon><polygon points="99.33 381.31 98.72 380.52 131.57 354.9 179.49 350.8 179.57 350.82 221.85 362.02 258.84 329.92 258.98 329.89 310.81 322.45 349.42 296.47 367.32 255.63 368.24 256.04 350.22 297.14 350.1 297.22 311.18 323.41 311.06 323.42 259.27 330.86 222.1 363.13 221.85 363.06 179.4 351.81 131.95 355.88 99.33 381.31" style="fill:#fff"></polygon><path d="M100.79,380.72a4.52,4.52,0,1,1-4.52-4.52A4.52,4.52,0,0,1,100.79,380.72Z" style="fill:#dbdbdb"></path><path d="M96.27,385.74a5,5,0,1,1,5-5A5,5,0,0,1,96.27,385.74Zm0-9a4,4,0,1,0,4,4A4,4,0,0,0,96.27,376.7Z" style="fill:#fff"></path><path d="M136.07,355.39a4.52,4.52,0,1,1-4.52-4.52A4.53,4.53,0,0,1,136.07,355.39Z" style="fill:#dbdbdb"></path><path d="M131.55,360.41a5,5,0,1,1,5-5A5,5,0,0,1,131.55,360.41Zm0-9a4,4,0,1,0,4,4A4,4,0,0,0,131.55,351.37Z" style="fill:#fff"></path><path d="M184,350.62a4.52,4.52,0,1,1-4.51-4.52A4.51,4.51,0,0,1,184,350.62Z" style="fill:#dbdbdb"></path><path d="M179.45,355.64a5,5,0,1,1,5-5A5,5,0,0,1,179.45,355.64Zm0-9a4,4,0,1,0,4,4A4,4,0,0,0,179.45,346.6Z" style="fill:#fff"></path><circle cx="221.77" cy="362.68" r="4.52" style="fill:#dbdbdb"></circle><path d="M221.77,367.7a5,5,0,1,1,5-5A5,5,0,0,1,221.77,367.7Zm0-9a4,4,0,1,0,4,4A4,4,0,0,0,221.77,358.66Z" style="fill:#fff"></path><path d="M263.57,330.9a4.52,4.52,0,1,1-4.52-4.52A4.52,4.52,0,0,1,263.57,330.9Z" style="fill:#dbdbdb"></path><path d="M259.05,335.92a5,5,0,1,1,5-5A5,5,0,0,1,259.05,335.92Zm0-9a4,4,0,1,0,4,4A4,4,0,0,0,259.05,326.88Z" style="fill:#fff"></path><path d="M315.51,322.54A4.52,4.52,0,1,1,311,318,4.52,4.52,0,0,1,315.51,322.54Z" style="fill:#dbdbdb"></path><path d="M311,327.56a5,5,0,1,1,5-5A5,5,0,0,1,311,327.56Zm0-9a4,4,0,1,0,4,4A4,4,0,0,0,311,318.53Z" style="fill:#fff"></path><path d="M354.37,296.92a4.52,4.52,0,1,1-4.51-4.52A4.51,4.51,0,0,1,354.37,296.92Z" style="fill:#dbdbdb"></path><path d="M349.86,301.94a5,5,0,1,1,5-5A5,5,0,0,1,349.86,301.94Zm0-9a4,4,0,1,0,4,4A4,4,0,0,0,349.86,292.9Z" style="fill:#fff"></path><path d="M372.51,255.85a4.52,4.52,0,1,1-4.52-4.52A4.51,4.51,0,0,1,372.51,255.85Z" style="fill:#dbdbdb"></path><path d="M368,260.86a5,5,0,1,1,5-5A5,5,0,0,1,368,260.86Zm0-9a4,4,0,1,0,4,4A4,4,0,0,0,368,251.83Z" style="fill:#fff"></path></g><g id="freepik--Shadow--inject-7"><ellipse cx="182.82" cy="457.27" rx="140.33" ry="12.61" style="fill:#ebebeb"></ellipse></g><g id="freepik--Bars--inject-7"><rect x="273.97" y="309.23" width="45.85" height="128.62" style="fill:#407BFF"></rect><g style="opacity:0.1"><rect x="309.32" y="309.23" width="10.5" height="128.62"></rect></g><rect x="334.38" y="260.62" width="45.85" height="177.23" style="fill:#407BFF"></rect><g style="opacity:0.1"><rect x="369.72" y="260.62" width="10.5" height="177.23"></rect></g><rect x="213.7" y="338.19" width="45.85" height="99.65" style="fill:#407BFF"></rect><g style="opacity:0.1"><rect x="249.05" y="338.19" width="10.5" height="99.65"></rect></g><rect x="394.78" y="195.88" width="45.85" height="241.96" style="fill:#407BFF"></rect><g style="opacity:0.1"><rect x="430.13" y="195.88" width="10.5" height="241.96"></rect></g></g><g id="freepik--Arrow--inject-7"><path d="M197.46,399.21v-24.8s167-14.21,234.46-199.21l6.71,1.73S393.82,366.55,197.46,399.21Z" style="fill:#37474f"></path><polygon points="444.89 183.15 423.79 176.17 441.27 158.74 444.89 183.15" style="fill:#37474f"></polygon></g><g id="freepik--Floor--inject-7"><polygon points="39 437.85 91.75 437.6 144.5 437.52 250 437.35 355.5 437.51 408.25 437.6 461 437.85 408.25 438.09 355.5 438.18 250 438.35 144.5 438.18 91.75 438.09 39 437.85" style="fill:#263238"></polygon></g><g id="freepik--Character--inject-7"><path d="M296.41,96c3,17-7,35.48-28.84,42.33-19.85,6.23-42.31-4.1-47.25-17.18C215.09,107.29,224,94,235.17,92.85c10.76-1.15,19.32,4.78,27.28,1.56,3.81-1.55,8.08-7,13.61-9.56C282.23,82,294.5,85.1,296.41,96Z" style="fill:#263238"></path><path d="M228.45,132.79a41.82,41.82,0,0,0,19.26,8.36,46.48,46.48,0,0,0,21-1.6,39.89,39.89,0,0,0,17.91-11.08A39.36,39.36,0,0,0,296,109.71,41.32,41.32,0,0,1,286.2,128a38.8,38.8,0,0,1-8.14,6.52,42.53,42.53,0,0,1-9.55,4.18,50.68,50.68,0,0,1-10.26,2,45,45,0,0,1-20.56-3A40.08,40.08,0,0,1,228.45,132.79Z" style="fill:#263238"></path><path d="M232.18,92.55a20.65,20.65,0,0,1,6.43-.94,27.77,27.77,0,0,1,6.42.77c2.12.52,4.26,1,6.42,1.38a28.68,28.68,0,0,0,6.61.48,19,19,0,0,0,3.32-.47,13.12,13.12,0,0,0,3.1-1.33,53.4,53.4,0,0,0,5.35-3.84,25.64,25.64,0,0,1,5.54-3.33,18,18,0,0,1,6.33-1.39,17.09,17.09,0,0,0-6.48,1,26,26,0,0,0-5.77,3.19c-1.8,1.25-3.5,2.63-5.36,3.69A11.78,11.78,0,0,1,261.17,93a17.18,17.18,0,0,1-3.16.41c-4.29.27-8.57-.82-12.84-1.65a27.88,27.88,0,0,0-6.57-.55A19.55,19.55,0,0,0,232.18,92.55Z" style="fill:#263238"></path><path d="M77.7,127.55c2.11-4.89,67.56-7.29,123.2-8H201c25.11-.31,49.23-2.62,64.43-1.83,9.66.51,14.83,4,16,5.38,3.73,4.48,10.56,18.85-15.16,37-19.46,13.73-41.79,26-58.38,47s-25.9,47.47-24.72,65.51,14.28,35.26,13,33.39c-.4-.58-5.27-.29-12.07-4.23-8.35-4.84-18.05-15.08-24.61-18.09-13.41-6.14-31.54-5.1-45.7-19.46C98.78,249.14,95.13,222.49,88,201.39,79.36,175.76,59.45,169.78,77.7,127.55Z" style="fill:#407BFF"></path><g style="opacity:0.2"><path d="M77.7,127.55c2.11-4.89,67.56-7.29,123.2-8H201c25.11-.31,49.23-2.62,64.43-1.83,9.66.51,14.83,4,16,5.38,3.73,4.48,10.56,18.85-15.16,37-19.46,13.73-41.79,26-58.38,47s-25.9,47.47-24.72,65.51,14.28,35.26,13,33.39c-.4-.58-5.27-.29-12.07-4.23-8.35-4.84-18.05-15.08-24.61-18.09-13.41-6.14-31.54-5.1-45.7-19.46C98.78,249.14,95.13,222.49,88,201.39,79.36,175.76,59.45,169.78,77.7,127.55Z"></path></g><path d="M91,210.94c-.95-3.26-1.91-6.47-3-9.55a89.51,89.51,0,0,0-8.17-17s58.67-14.6,75.78-7.49C165,180.78,137.51,183.23,91,210.94Z" style="opacity:0.1"></path><path d="M169.79,291.06c-3.83-3.15-7.44-6-10.39-7.33a66,66,0,0,0-10.66-3.58c3.77-24.37,8-41.2,18.55-52.36C174,220.63,157.06,261.72,169.79,291.06Z" style="opacity:0.1"></path><path d="M96.08,229.14c-.87-2.94-1.7-5.91-2.53-8.88,18.93-7.64,35-18.68,35.13-16.1C128.88,207,108.49,221,96.08,229.14Z" style="opacity:0.1"></path><path d="M60.29,181s-5.41-24,11.08-53c1.6-2.82,29.52-14.74,48.18-16.31s32.85,4,55,7.21,81.11-3.92,95.37-.88c9.8,2.09,11.38,5.13,11.38,5.13s-11.45-3.62-18.33-3.51c-27.23.44-75.57,14.87-88.25,14.68-15.48-.23-32.72-1.63-45.28,1.39C115.4,139,68.51,172.15,60.29,181Z" style="fill:#407BFF"></path><path d="M213.52,361.66c-1.49-1.65-25.59-57-25.16-59.71.14-1,51.79-16.89,51.79-16.89L254.31,321l-32.67,7.06s-.26,25.32-1,28.23S215,363.31,213.52,361.66Z" style="fill:#eb9481"></path><path d="M213.52,361.66c-.65-.73-5.67-11.82-11.06-24.26-.35-.82-.71-1.65-1.06-2.48-.93-2.12-1.84-4.27-2.75-6.4-.35-.83-.69-1.66-1-2.48l0,0c-.34-.82-.69-1.65-1-2.45-.53-1.24-1-2.46-1.52-3.65-.32-.78-.63-1.55-.94-2.29l0,0-.89-2.2,0,0c-.44-1.08-.85-2.11-1.24-3.1-.27-.66-.53-1.32-.77-1.95-.48-1.22-.91-2.34-1.27-3.34-.2-.5-.37-1-.52-1.41-.39-1.1-.68-2-.84-2.6a3,3,0,0,1-.17-1c0-.36,6.09-2.83,14-5.94,1.12,5.88,3.49,16.49,8,32.35,7.36,26.07,10.71,15.84,11.09,10.68,0-.05,0-.1,0-.15,0,.31,0,.63,0,.94V340c0,.57,0,1.15-.05,1.72s0,1.26,0,1.89c0,1-.05,2.08-.1,3.09s-.06,2-.11,2.89c0,.55,0,1.08-.07,1.58,0,.26,0,.5,0,.75s0,.65-.06,1c0,.68-.08,1.29-.14,1.81a2.19,2.19,0,0,1,0,.36,11.46,11.46,0,0,1-.19,1.25C219.83,359.18,215,363.3,213.52,361.66Z" style="fill:#263238"></path><path d="M232.86,331.14l-14.07-41.71s53.36-20.67,54.27-24.18c.36-1.37-34.59-52.5-41.09-72.24-4.32-13.14,6.36-27.66,6.36-27.66l38.47,10.32s-2,11-.71,13.19c12.17,20.19,46.26,75.93,43.06,95.3C316.09,302.7,232.86,331.14,232.86,331.14Z" style="fill:#263238"></path><path d="M241.19,325.75c-1.52-4.84-8-24.41-9.83-29.25-.52-1.4-1-2.8-1.58-4.18a39.91,39.91,0,0,0-1.7-4.11.08.08,0,0,0-.15.05,36.56,36.56,0,0,0,1.07,3.81c.37,1.27.77,2.53,1.17,3.79.78,2.49,1.59,5,2.4,7.45,1.6,4.84,6.88,20,8.21,22.59C240.89,326.11,241.27,326,241.19,325.75Z" style="fill:#37474f"></path><path d="M279,266.32c-4.6-5.55-37.33-63-39-66.36a39.91,39.91,0,0,1-3.92-9.74c-1.58-7.49.78-15.29,4-22a.18.18,0,0,0-.31-.17c-3.22,5.84-5.47,12.48-5,19.22a27,27,0,0,0,2.77,9.86c1.58,3.37,3.33,6.67,5,10,3.46,6.86,33.16,56.25,35.61,59.38-5.73,3.08-11.47,6.15-17.3,9-6,3-12.12,5.79-18.25,8.54q-5.19,2.32-10.44,4.54c-.15.06-.08.3.07.24a322.63,322.63,0,0,0,36.72-16.45c3.36-1.76,6.72-3.55,10-5.45A.41.41,0,0,0,279,266.32Z" style="fill:#37474f"></path><path d="M267.89,256.46c-9.9-15.77-31-48.55-35.92-63.45-4.32-13.14,6.36-27.66,6.36-27.66l14.81,4Z" style="fill:#37474f"></path><path d="M173,398.79c-2.09-.78-49-38.82-49.84-41.41-.35-1,4.8-8.13,11.26-16.6l.21-.26c1.33-1.75,27-29.22,27-29.22l30.18,25.56-26.66,27.87-.43.5s11.43,22.59,12.08,25.53S175,399.57,173,398.79Z" style="fill:#eb9481"></path><path d="M131.18,345c-4.88,6.53-8.36,11.57-8.07,12.39C124,360,170.86,398,173,398.79s4.46-5.1,3.81-8c-.39-1.79-4.79-10.88-8.17-17.71,2.14,4.81,3.79,14.56-15-4.16C141.93,357.34,135,349.53,131.18,345Z" style="fill:#263238"></path><path d="M276.8,175.67s-8.94,20.76-16.23,25.46c0,0-26.52,65.19-34.94,82.32C214.52,306.07,176,358.14,176,358.14l-36.7-27.89s48.29-59.8,48.91-61.3c3.51-8.53,31.28-71.34,31.18-73-1-17,11-32.72,11-32.72Z" style="fill:#263238"></path><path d="M260.37,201.17a4.66,4.66,0,0,0-.82,1.56c-.23.52-.45,1-.67,1.57-.44,1-.89,2.1-1.32,3.16-.89,2.19-1.8,4.37-2.71,6.56s-1.82,4.38-2.69,6.58-1.73,4.29-2.41,6.49c0,.08.1.13.14,0,1.18-2,2.18-4.19,3.16-6.33s1.93-4.32,2.83-6.5,1.79-4.39,2.66-6.59c.41-1,.79-2.06,1.18-3.09.2-.53.39-1.07.58-1.61a4.49,4.49,0,0,0,.46-1.7A.23.23,0,0,0,260.37,201.17Z" style="fill:#37474f"></path><path d="M276.42,178.77c-2.95,4.84-5.77,9.75-9,14.42-.68,1-1.39,2.4-2.48,3a1.44,1.44,0,0,1-1.46,0c-.62-.43-.31-1.29-.05-1.83.62-1.29,1.4-2.52,2.09-3.78s1.45-2.67,2.18-4c1.62-3,3.06-6,4.69-9,.05-.09-.08-.17-.13-.08-1.69,2.92-3.55,5.74-5.25,8.66l-2.62,4.47-1.22,2.14a8.28,8.28,0,0,0-.94,1.94,1.93,1.93,0,0,0,1.31,2.54,3,3,0,0,0,2.93-1.19,35.26,35.26,0,0,0,2.53-3.64c.87-1.33,1.73-2.67,2.54-4a76,76,0,0,0,4.94-9.63C276.51,178.76,276.45,178.72,276.42,178.77Z" style="fill:#37474f"></path><path d="M263.32,196.64c-.73.61-3.51,4.26-3.68,4.46s.4.45.48.37a44,44,0,0,0,3.55-4.73C263.69,196.68,263.38,196.58,263.32,196.64Z" style="fill:#37474f"></path><path d="M266.32,199.85a43.22,43.22,0,0,0-7.4,1.19c-1.21.26-2.41.53-3.61.84a27.67,27.67,0,0,0-3.79,1.06.08.08,0,0,0,0,.15,28.38,28.38,0,0,0,3.88-.49c1.18-.17,2.35-.37,3.52-.6a43.61,43.61,0,0,0,7.42-1.79A.18.18,0,0,0,266.32,199.85Z" style="fill:#37474f"></path><path d="M179,348.92c-4-3.13-20.43-15.57-24.69-18.52-1.22-.85-2.44-1.72-3.67-2.55a41,41,0,0,0-3.73-2.42.08.08,0,0,0-.09.13,35,35,0,0,0,3,2.53c1,.83,2.08,1.64,3.12,2.46,2,1.61,4.13,3.19,6.2,4.77,4.07,3.08,17,12.61,19.57,13.95C179,349.38,179.23,349.08,179,348.92Z" style="fill:#37474f"></path><path d="M235.13,166.74a42.53,42.53,0,0,0-6.85,13.71,43.77,43.77,0,0,0-1.44,7.45c-.3,2.83-.11,5.74-1,8.48a88.48,88.48,0,0,1-3.47,8.23l-3.67,8.4-7.23,16.68-14.56,33.49c-1.16,2.69-2.3,5.39-3.65,8a52.46,52.46,0,0,1-4.56,7.21c-3.57,4.83-7.39,9.48-11.07,14.22-7.43,9.53-14.9,19-22.16,28.68l-2.74,3.66c-.06.08,0,.19.11.11,7.67-9.38,15.16-18.9,22.66-28.43q5.63-7.14,11.21-14.32c1.68-2.16,3.35-4.34,4.84-6.64a57.09,57.09,0,0,0,4.09-7.63c5-11,9.68-22.21,14.51-33.31s9.71-22.33,14.53-33.51a26.65,26.65,0,0,0,2.53-7.76c.29-2.77.3-5.54.78-8.3a47.34,47.34,0,0,1,5.31-14.87c.64-1.15,1.34-2.27,2.07-3.36C235.49,166.77,235.24,166.59,235.13,166.74Z" style="fill:#37474f"></path><rect x="156.23" y="197.5" width="47.12" height="77.78" transform="translate(-103.27 326.28) rotate(-70.36)" style="fill:#455a64"></rect><rect x="172.89" y="185.76" width="22.19" height="77.78" transform="translate(-89.43 322.43) rotate(-70.36)" style="fill:#37474f"></rect><rect x="145.62" y="207.04" width="81.46" height="21.99" transform="translate(288.58 486.01) rotate(-160.36)" style="fill:#455a64"></rect><polygon points="178.11 190.1 173.89 201.91 179.45 203.89 181.85 197.17 203.04 204.74 200.64 211.46 206.2 213.44 210.41 201.62 178.11 190.1" style="fill:#263238"></polygon><rect x="205.33" y="232.18" width="5.31" height="10.5" transform="translate(324.08 530.94) rotate(-160.36)" style="fill:#263238"></rect><rect x="154.67" y="214.1" width="5.31" height="10.5" transform="translate(231.77 478.82) rotate(-160.36)" style="fill:#263238"></rect><path d="M275.08,134.3c12.63,20.53,28.63,39.34,36,39.48,9.92.19,31-10,41.48-16.36,3.07-1.85-11.86-25.48-15.15-23.5-4,2.39-24.33,15.11-24.79,15.22-1,.24-23.88-15.38-29.26-19.25C274.37,123.44,269.48,125.19,275.08,134.3Z" style="fill:#eb9481"></path><path d="M367.77,147.14c-3.79,4.61-15.25,11-18.6,11.48S334.3,140,335.55,136.75s15.24-17.77,21.2-19S371.7,142.36,367.77,147.14Z" style="fill:#eb9481"></path><path d="M348,121.49c-.46,3.13,3.49,1.88,3.49,1.88s-5.25,3.18-4.47,6.59,5.48,1.6,5.82,1.48c-.28.17-5,3.22-3.9,6.56s5.63,1,5.92.81c-.21.24-2.94,3.5-1.5,5.85,2.48,4,9.68-4.11,13.51-4.18,0,0,.87,6.47.93,6.66,0,0,7-7.61,6.63-12.77a3.29,3.29,0,0,0-2.78-3.06s2.53-2.21,1.72-4.87c-.42-1.36-3-1.91-3-1.91a4.14,4.14,0,0,0,1.08-4.17c-.69-1.86-3.14-2.11-3.14-2.11s1.05-2.65-.27-4.32C365.39,110.56,349,114.79,348,121.49Z" style="fill:#eb9481"></path><path d="M367.92,118.15c.06,0,.06-.09,0-.09a29.49,29.49,0,0,0-16.68,5.35c-.15.12,0,.41.16.32A60,60,0,0,1,367.92,118.15Z" style="fill:#263238"></path><path d="M370.44,124.48c.06,0,.05-.12,0-.12a27.57,27.57,0,0,0-17.83,7c-.17.16-.16.47,0,.3C356.11,128.82,365,125.38,370.44,124.48Z" style="fill:#263238"></path><path d="M354.6,139.25c4.85-4.23,10.57-6.49,16.78-8,.08,0,0-.13,0-.13-3.23-.11-7.09,1.24-10,2.55a16.91,16.91,0,0,0-6.89,5.37C354.38,139.18,354.5,139.34,354.6,139.25Z" style="fill:#263238"></path><path d="M351.46,123.37a19.7,19.7,0,0,0-2.64,2.35,6.47,6.47,0,0,0-1.7,2.92,2.12,2.12,0,0,0,.23,1.51,3.1,3.1,0,0,0,1.12,1.1,3.76,3.76,0,0,0,3.08.07l2.44-.9-2,1.69a10.59,10.59,0,0,0-2.24,2.62,3.78,3.78,0,0,0-.55,3.05,2.18,2.18,0,0,0,2.2,1.63,6.67,6.67,0,0,0,3.12-1l2.64-1.57-2,2.34a9.83,9.83,0,0,0-1.39,2.14,4.07,4.07,0,0,0-.45,2.32,2,2,0,0,0,1.32,1.58,4.34,4.34,0,0,0,2.4-.27,34.81,34.81,0,0,0,4.78-2.37c.78-.43,1.58-.87,2.39-1.27a6.38,6.38,0,0,1,2.57-.8,6.8,6.8,0,0,0-2.46,1c-.77.45-1.52.95-2.27,1.44a28.59,28.59,0,0,1-4.75,2.67,5.08,5.08,0,0,1-2.87.42,2.78,2.78,0,0,1-2-2.25,5,5,0,0,1,.49-2.9,11.16,11.16,0,0,1,1.5-2.41l.67.77a7.46,7.46,0,0,1-3.68,1.25,3.2,3.2,0,0,1-2-.64,3.63,3.63,0,0,1-1.16-1.75,4.77,4.77,0,0,1,.7-3.87,11.3,11.3,0,0,1,2.5-2.84l.46.79a4.58,4.58,0,0,1-3.81-.28,3.93,3.93,0,0,1-1.31-1.44,2.76,2.76,0,0,1-.22-1.93,6.69,6.69,0,0,1,2-3A16,16,0,0,1,351.46,123.37Z" style="fill:#263238"></path><path d="M337.5,133.86s7.1-24.32,15.25-16.89c2.42,2.21,9.72,14.17,7.35,15.68-3.07,2-7.05-2.46-9.11-5.64,0,0-1.25,8.62-7.5,9.53A6.27,6.27,0,0,1,337.5,133.86Z" style="fill:#eb9481"></path><path d="M352,116.4a13.32,13.32,0,0,1,2.78,2.68,31.66,31.66,0,0,1,2.24,3.16,45.07,45.07,0,0,1,3.56,6.91,7.33,7.33,0,0,1,.5,2,2.69,2.69,0,0,1-.14,1.17,1.88,1.88,0,0,1-.8,1,3.25,3.25,0,0,1-2.21.44,6.22,6.22,0,0,1-2-.72,11.79,11.79,0,0,1-3-2.62,26,26,0,0,1-2.32-3.15l.82-.19a16.16,16.16,0,0,1-.81,2.86,14.47,14.47,0,0,1-1.32,2.64,10.23,10.23,0,0,1-1.94,2.21,7.73,7.73,0,0,1-2.53,1.42,8.46,8.46,0,0,0,2.31-1.65,10.37,10.37,0,0,0,1.67-2.28,14.38,14.38,0,0,0,1.12-2.58,15.55,15.55,0,0,0,.61-2.73l.13-1.15.69,1a28.1,28.1,0,0,0,2.33,3,11.3,11.3,0,0,0,2.79,2.36,3.2,3.2,0,0,0,3.1.32c.77-.41.46-1.79.06-2.92a37.49,37.49,0,0,0-1.47-3.49c-.55-1.15-1.1-2.3-1.71-3.42A24.89,24.89,0,0,0,352,116.4Z" style="fill:#263238"></path><path d="M322.71,142.43l11.89,26.65s-19.26,6.79-25.54,4.57-24-20.94-32.45-35.45-3.47-16.41,10.48-6.6,25,16.7,25.41,16.52S322.71,142.43,322.71,142.43Z" style="fill:#ebebeb"></path><path d="M318.81,146.36c0-.08-.17,0-.15.06a229.23,229.23,0,0,0,8.81,23.24c0,.08.18,0,.15-.06A226.88,226.88,0,0,0,318.81,146.36Z" style="fill:#263238"></path><path d="M298.42,165.44c-7.5-7.3-16.5-18.11-21.81-27.24-6.83-11.74-4.87-15.23,3.53-10.92Z" style="fill:#c7c7c7"></path><path d="M278.69,168.61l-2,15.61s-32.68-3.26-49.52-17.65c0,0,18-36.07,36.25-43.81,9.14-3.88,16.11-.12,18.58,6.61.63,1.7,7.65,20.76,5.94,28.41C286.46,164.52,278.69,168.61,278.69,168.61Z" style="fill:#ebebeb"></path><path d="M278,132.61l-.06-.28v-.11s.06-.05.07,0l.07.13c.07.18.14.36.2.54.12.36.22.73.32,1.1.2.73.38,1.48.55,2.22.34,1.49.57,3,.78,4.51a51,51,0,0,1,.41,9.16,32.17,32.17,0,0,1-1.64,9.06,18.14,18.14,0,0,1-4.91,7.77l.07-.11c-.92,2.75-1.88,5.48-2.85,8.21l-1.48,4.08c-.51,1.35-1,2.72-1.64,4,.58-1.33,1-2.71,1.48-4.08l1.36-4.12,2.62-8.27,0-.06.05-.05a19.2,19.2,0,0,0,4.43-7.67,37.57,37.57,0,0,0,1.54-8.83,66.59,66.59,0,0,0-.14-9c-.12-1.5-.32-3-.52-4.5-.1-.76-.22-1.5-.35-2.25l-.23-1.11c0-.19-.08-.37-.13-.55a.89.89,0,0,0,0-.13s0,.07,0,.1Z" style="fill:#263238"></path><path d="M287.41,146.19l-.12-.49a12.16,12.16,0,0,0-.08-1.91,11.8,11.8,0,0,0-.54-2.26c0-.05-.08,0-.07,0a21.69,21.69,0,0,1,.48,3.23,44.58,44.58,0,0,0-2.05-6.5.05.05,0,0,0-.1,0c.66,2.64,1.36,5.27,1.92,7.93s1,5.33,1.46,8c0,.1.18.07.17,0A45.09,45.09,0,0,0,287.41,146.19Z" style="fill:#263238"></path><path d="M277.76,140.22a1,1,0,1,1-1-.95A1,1,0,0,1,277.76,140.22Z" style="fill:#263238"></path><circle cx="277.03" cy="149.36" r="0.96" style="fill:#263238"></circle><circle cx="271.69" cy="165.35" r="0.96" style="fill:#263238"></circle><circle cx="268.85" cy="173.78" r="0.96" style="fill:#263238"></circle><circle cx="275.84" cy="157.55" r="0.96" style="fill:#263238"></circle><path d="M258.78,121c-23.77.09-42.4,5.14-46.72,10.55-3.57,4.46-14.63,24-19.3,35.9-1.31,3.34,25.35,15.29,26.3,11.57,1.48-5.76,13.62-33.65,13.75-34.1.26-1,24.13-10.79,30.23-13C274.23,127.71,271.38,120.92,258.78,121Z" style="fill:#eb9481"></path><path d="M201.7,210.22a4.27,4.27,0,0,1-3.58-3.32,6.32,6.32,0,0,1-4.29.46c-2.5-.73-2.45-5-2.45-5a7.84,7.84,0,0,1-4.6-.23c-2.33-.95-2.88-5.25-2.88-5.25a6.85,6.85,0,0,1-3.92-2.75c-2.35-3.72.58-9.78,2.4-13.65s10.61-13.15,12.1-15.08l25,11.47s-3.23,19.68-6,23.93C211.06,204.38,205,210.55,201.7,210.22Z" style="fill:#eb9481"></path><path d="M198.6,206.91c3.41-3.2,5.69-7.24,8.19-11.14.05-.09-.08-.18-.14-.09-2.44,3.91-5.63,7.29-8.22,11.09A.11.11,0,0,0,198.6,206.91Z" style="fill:#263238"></path><path d="M191.75,202.44a12.14,12.14,0,0,0,1.77-2.65c.56-1,1.1-2,1.63-3,1.06-2,2.08-4,3-6.08,0-.09-.09-.17-.14-.08-1.06,2-2.14,4-3.29,5.91-.57,1-1.15,1.94-1.73,2.91a14.12,14.12,0,0,0-1.54,2.8A.16.16,0,0,0,191.75,202.44Z" style="fill:#263238"></path><path d="M183.94,196.81a8.43,8.43,0,0,0,1.47-2.47c.47-.92.93-1.84,1.41-2.76,1-1.83,1.89-3.66,2.91-5.46a.08.08,0,0,0-.14-.08c-1,1.82-2.1,3.62-3.12,5.46-.5.89-1,1.8-1.49,2.7a8.2,8.2,0,0,0-1.13,2.57S183.91,196.84,183.94,196.81Z" style="fill:#263238"></path><path d="M225.28,165.89l-26.86-13.25s8.91-20.09,14.32-24,28.44-8,45.21-7.84c17.05.17,17.75,6.9,1.73,12.73s-26.32,11.14-26.41,11.59S225.28,165.89,225.28,165.89Z" style="fill:#ebebeb"></path><path d="M226.77,162.79c1.17-2.8,6.64-17.51,6.82-17.63.38-.24,6.51-3.22,8.33-4.11,1.54-.75,3.1-1.47,4.66-2.19,1.32-.28,2.65-.56,3.94-1a.08.08,0,0,0,0-.15,20.8,20.8,0,0,0-2.72.55l5.13-2.35s0-.07,0-.06c-3.87,1.35-19.73,8.39-19.76,8.63s-6.5,17.65-6.54,18C226.56,162.67,226.74,162.87,226.77,162.79Z" style="fill:#263238"></path><path d="M225.28,158.61c.09,0,.15-.11.07-.15a226.93,226.93,0,0,0-22.48-10.6c-.09,0-.15.1-.07.15A230.3,230.3,0,0,0,225.28,158.61Z" style="fill:#263238"></path><path d="M271.37,122.55c0,1,3,8.41,7.42,9.32,1.45.29,3.4-7.53,3.4-7.53l.28-.54,3.86-7.63-7.95-8.5-1.17-1.15s-.91,2.15-2,4.85c-.05.12-.11.24-.16.38s-.13.29-.19.44c-.17.4-.35.8-.51,1.22s-.25.61-.37,1l-.38,1A57.12,57.12,0,0,0,271.37,122.55Z" style="fill:#eb9481"></path><path d="M275.18,111.37a17.14,17.14,0,0,0,7.29,12.43l3.86-7.63-7.95-8.5-1.17-1.15S276.3,108.67,275.18,111.37Z" style="fill:#263238"></path><path d="M299.94,101.2c3,14.69-5.46,18.15-8.62,18.79-2.88.59-12.75,2.22-17.26-12.09s1.38-20.34,7.89-22S296.94,86.51,299.94,101.2Z" style="fill:#eb9481"></path><path d="M295,109.39a4.39,4.39,0,0,1-1.32,1.75,2,2,0,0,1-1.13.38c-.88,0-1.11-.75-1.13-1.44a4.73,4.73,0,0,1,.1-1.09A5.63,5.63,0,0,0,295,109.39Z" style="fill:#263238"></path><path d="M293.69,111.14a2,2,0,0,1-1.13.38c-.88,0-1.11-.75-1.13-1.44A2,2,0,0,1,293.69,111.14Z" style="fill:#ff9bbc"></path><path d="M296.41,97.61a9,9,0,0,1-1,0,1.65,1.65,0,0,1-1.05-.21.52.52,0,0,1-.13-.64,1.3,1.3,0,0,1,1.21-.56,2,2,0,0,1,1.34.43A.58.58,0,0,1,296.41,97.61Z" style="fill:#263238"></path><path d="M287,100.94a6.93,6.93,0,0,0,1-.12,1.68,1.68,0,0,0,1-.32.54.54,0,0,0,.06-.65,1.34,1.34,0,0,0-1.27-.43,2,2,0,0,0-1.28.58A.57.57,0,0,0,287,100.94Z" style="fill:#263238"></path><path d="M289.81,103.79s-.06.07-.05.11c.26,1,.39,2.16-.44,2.7,0,0,0,.06,0,.05C290.41,106.24,290.22,104.69,289.81,103.79Z" style="fill:#263238"></path><path d="M288.69,103c-1.63.24-1,3.48.49,3.25S290.05,102.75,288.69,103Z" style="fill:#263238"></path><path d="M288.08,103.25c-.25.23-.46.61-.8.71s-.75-.17-1.07-.45c0,0,0,0,0,0,.1.62.46,1.21,1.15,1.18s.95-.66,1-1.32C288.31,103.3,288.18,103.15,288.08,103.25Z" style="fill:#263238"></path><path d="M295.26,102.4s.09,0,.09.07c.15,1,.5,2.15,1.46,2.32,0,0,0,0,0,0C295.68,104.89,295.24,103.38,295.26,102.4Z" style="fill:#263238"></path><path d="M296,101.19c1.59-.42,2.3,2.8.83,3.18S294.63,101.53,296,101.19Z" style="fill:#263238"></path><path d="M296.69,101.25c.29.11.61.37.92.32s.54-.46.69-.84c0,0,0,0,.06,0,.15.61.09,1.3-.48,1.55s-1-.22-1.31-.8C296.52,101.4,296.57,101.2,296.69,101.25Z" style="fill:#263238"></path><path d="M291.07,112c.28.2.57.49.94.47a2.77,2.77,0,0,0,1.05-.41,0,0,0,0,1,.05,0,1.41,1.41,0,0,1-1.21.73A1.09,1.09,0,0,1,291,112,.06.06,0,0,1,291.07,112Z" style="fill:#263238"></path><path d="M294.81,107.25s.51,1.45.65,2.16c0,.07-.15.13-.39.19h0a3.42,3.42,0,0,1-3.51-.6.07.07,0,0,1,.08-.12,5.09,5.09,0,0,0,3.24.26c0-.2-.95-2.46-.84-2.49a6.32,6.32,0,0,1,1.67,0c-1-3-2.42-5.93-3.34-9,0-.11.13-.18.18-.09a52.28,52.28,0,0,1,4,9.54C296.68,107.55,295.12,107.31,294.81,107.25Z" style="fill:#263238"></path><path d="M275.37,109.71c2.48-.46,1.68-5.68,1.68-5.68s4.93-1.3,4.68-8.81a11.34,11.34,0,0,1-.63,6.43s8.44-3.22,10.16-11.46c0,0-.47,4.09-1.49,5.77a10.51,10.51,0,0,0,4.36-5.41s2.64,3.79,4.11,4.63c0,0-.48-7.88-4.67-10.83-8.84-6.21-17.4,3.94-17.4,3.94s-5.68,2.63-6.5,7.7C268.41,103.81,275.37,109.71,275.37,109.71Z" style="fill:#263238"></path><path d="M277.09,108.3s-3.58-4.45-5.62-3.15.87,7.92,3.42,8.67a2.53,2.53,0,0,0,3.3-1.58Z" style="fill:#eb9481"></path><path d="M272.35,107a0,0,0,0,0,0,.06c1.8.59,2.82,2.15,3.58,3.78a1.41,1.41,0,0,0-2.12-.24.06.06,0,0,0,.06.09,1.57,1.57,0,0,1,1.75.43,8.22,8.22,0,0,1,.91,1.33c.09.15.37,0,.3-.13l0,0C276.69,110.09,274.75,107.09,272.35,107Z" style="fill:#263238"></path><path d="M282.17,124.49,278,130.3l-6-10.11-2.91,2.06s4.68,14.88,4.87,14.31l4-4.91,2.9,4.8,2.06-9.79Z" style="fill:#ebebeb"></path><path d="M282.14,131.67c.28-1.63.62-3.26.83-4.9,0,0-.08-.1-.11,0-.7,1.47-1.76,7.7-2.12,9.17v0c-.12-.21-2.73-4.28-2.78-4.23-.79.74-3.73,4.31-3.95,4.65-.74-2.37-3.66-11-4.65-13.32,0-.06-.13,0-.11,0,.56,2.45,4.39,14.06,4.49,14.06a64.92,64.92,0,0,0,4.22-5.2,43.35,43.35,0,0,0,3,5.1A53.33,53.33,0,0,0,282.14,131.67Z" style="fill:#263238"></path><path d="M272.43,120.22c-.72-1.7-2.66,1.88-1.12,4,2.28,3.08,6.59,6.73,7.54,6.75s4-3.79,4.39-4.62-.47-2.69-.77-2.51-2.94,4.23-3.31,4.42S274,123.87,272.43,120.22Z" style="fill:#407BFF"></path></g><g id="freepik--Coins--inject-7"><rect x="83.33" y="441.96" width="45.24" height="10" style="fill:#407BFF"></rect><g style="opacity:0.1"><path d="M85.2,442.87a16.25,16.25,0,0,1,0,8,14,14,0,0,1-.5-4A14.48,14.48,0,0,1,85.2,442.87Z"></path><path d="M88.57,442.87a16.25,16.25,0,0,1,0,8,16.25,16.25,0,0,1,0-8Z"></path><path d="M90.21,442.87a16.25,16.25,0,0,1,0,8,16.25,16.25,0,0,1,0-8Z"></path><path d="M99.25,442.87a16.25,16.25,0,0,1,0,8,16.25,16.25,0,0,1,0-8Z"></path><path d="M101.69,442.87a14.48,14.48,0,0,1,.5,4,14,14,0,0,1-.5,4,16.25,16.25,0,0,1,0-8Z"></path><path d="M111.8,442.87a14.87,14.87,0,0,1,.5,4,14.39,14.39,0,0,1-.5,4,14,14,0,0,1-.5-4A14.48,14.48,0,0,1,111.8,442.87Z"></path><path d="M114.13,442.87a16.25,16.25,0,0,1,0,8,16.25,16.25,0,0,1,0-8Z"></path><path d="M118.42,442.87a14.48,14.48,0,0,1,.5,4,14,14,0,0,1-.5,4,14.39,14.39,0,0,1-.5-4A14.87,14.87,0,0,1,118.42,442.87Z"></path><path d="M109.85,442.87a16.25,16.25,0,0,1,0,8,16.25,16.25,0,0,1,0-8Z"></path><path d="M93.2,442.87a14.87,14.87,0,0,1,.5,4,14.39,14.39,0,0,1-.5,4,14,14,0,0,1-.5-4A14.48,14.48,0,0,1,93.2,442.87Z"></path><path d="M104.91,442.87a16.25,16.25,0,0,1,0,8,16.25,16.25,0,0,1,0-8Z"></path><path d="M106.59,442.87a14.48,14.48,0,0,1,.5,4,14,14,0,0,1-.5,4,16.25,16.25,0,0,1,0-8Z"></path><path d="M124,442.87a14.87,14.87,0,0,1,.5,4,14,14,0,0,1-.5,4,14.39,14.39,0,0,1-.5-4A14.87,14.87,0,0,1,124,442.87Z"></path><path d="M126.54,442.87a16.25,16.25,0,0,1,0,8,16.25,16.25,0,0,1,0-8Z"></path><path d="M120.41,442.87a14.48,14.48,0,0,1,.5,4,14,14,0,0,1-.5,4,16.25,16.25,0,0,1,0-8Z"></path><path d="M97.3,442.87a16.25,16.25,0,0,1,0,8,16.25,16.25,0,0,1,0-8Z"></path></g><polygon points="128.57 441.96 128.57 444.08 83.33 445.51 83.33 441.96 128.57 441.96" style="opacity:0.1"></polygon><rect x="80.24" y="431.96" width="45.24" height="10" style="fill:#407BFF"></rect><g style="opacity:0.1"><path d="M82.1,432.88a16.25,16.25,0,0,1,0,8,16.25,16.25,0,0,1,0-8Z"></path><path d="M85.47,432.88a16.25,16.25,0,0,1,0,8,16.25,16.25,0,0,1,0-8Z"></path><path d="M87.12,432.88a14.82,14.82,0,0,1,.5,4,14.48,14.48,0,0,1-.5,4,14.11,14.11,0,0,1-.5-4A14.43,14.43,0,0,1,87.12,432.88Z"></path><path d="M96.15,432.88a16.25,16.25,0,0,1,0,8,16.25,16.25,0,0,1,0-8Z"></path><path d="M98.6,432.88a16.25,16.25,0,0,1,0,8,14.11,14.11,0,0,1-.5-4A14.43,14.43,0,0,1,98.6,432.88Z"></path><path d="M108.7,432.88a16.25,16.25,0,0,1,0,8,16.25,16.25,0,0,1,0-8Z"></path><path d="M111,432.88a14.82,14.82,0,0,1,.5,4,14.11,14.11,0,0,1-.5,4,14.11,14.11,0,0,1-.5-4A14.82,14.82,0,0,1,111,432.88Z"></path><path d="M115.33,432.88a16.25,16.25,0,0,1,0,8,16.25,16.25,0,0,1,0-8Z"></path><path d="M106.75,432.88a16.25,16.25,0,0,1,0,8,16.25,16.25,0,0,1,0-8Z"></path><path d="M90.11,432.88a16.25,16.25,0,0,1,0,8,16.25,16.25,0,0,1,0-8Z"></path><path d="M101.81,432.88a16.25,16.25,0,0,1,0,8,16.25,16.25,0,0,1,0-8Z"></path><path d="M103.5,432.88a16.25,16.25,0,0,1,0,8,14.11,14.11,0,0,1-.5-4A14.43,14.43,0,0,1,103.5,432.88Z"></path><path d="M120.92,432.88a16.25,16.25,0,0,1,0,8,16.25,16.25,0,0,1,0-8Z"></path><path d="M123.44,432.88a16.25,16.25,0,0,1,0,8,16.25,16.25,0,0,1,0-8Z"></path><path d="M117.32,432.88a16.25,16.25,0,0,1,0,8,14.11,14.11,0,0,1-.5-4A14.43,14.43,0,0,1,117.32,432.88Z"></path><path d="M94.2,432.88a14.43,14.43,0,0,1,.5,4,14.11,14.11,0,0,1-.5,4,14.48,14.48,0,0,1-.5-4A14.82,14.82,0,0,1,94.2,432.88Z"></path></g><polygon points="125.47 431.96 125.47 434.09 80.24 435.51 80.24 431.96 125.47 431.96" style="opacity:0.1"></polygon><rect x="87.23" y="412.05" width="45.24" height="10" style="fill:#407BFF"></rect><g style="opacity:0.1"><path d="M89.09,413a16.25,16.25,0,0,1,0,8,16.25,16.25,0,0,1,0-8Z"></path><path d="M92.46,413a14.43,14.43,0,0,1,.5,4,14.11,14.11,0,0,1-.5,4,16.25,16.25,0,0,1,0-8Z"></path><path d="M94.11,413a16.25,16.25,0,0,1,0,8,14.11,14.11,0,0,1-.5-4A14.43,14.43,0,0,1,94.11,413Z"></path><path d="M103.14,413a16.25,16.25,0,0,1,0,8,16.25,16.25,0,0,1,0-8Z"></path><path d="M105.59,413a16.25,16.25,0,0,1,0,8,16.25,16.25,0,0,1,0-8Z"></path><path d="M115.69,413a16.25,16.25,0,0,1,0,8,16.25,16.25,0,0,1,0-8Z"></path><path d="M118,413a16.25,16.25,0,0,1,0,8,14.11,14.11,0,0,1-.5-4A14.43,14.43,0,0,1,118,413Z"></path><path d="M122.32,413a16.25,16.25,0,0,1,0,8,16.25,16.25,0,0,1,0-8Z"></path><path d="M113.74,413a14.43,14.43,0,0,1,.5,4,14.11,14.11,0,0,1-.5,4,14.48,14.48,0,0,1-.5-4A14.82,14.82,0,0,1,113.74,413Z"></path><path d="M97.09,413a16.25,16.25,0,0,1,0,8,16.25,16.25,0,0,1,0-8Z"></path><path d="M108.8,413a16.25,16.25,0,0,1,0,8,16.25,16.25,0,0,1,0-8Z"></path><path d="M110.49,413a16.25,16.25,0,0,1,0,8,16.25,16.25,0,0,1,0-8Z"></path><path d="M127.91,413a16.57,16.57,0,0,1,0,8,16.25,16.25,0,0,1,0-8Z"></path><path d="M130.43,413a14.43,14.43,0,0,1,.5,4,14.11,14.11,0,0,1-.5,4,16.25,16.25,0,0,1,0-8Z"></path><path d="M124.31,413a16.25,16.25,0,0,1,0,8,16.25,16.25,0,0,1,0-8Z"></path><path d="M101.19,413a14.82,14.82,0,0,1,.5,4,14.11,14.11,0,0,1-.5,4,14.48,14.48,0,0,1-.5-4A14.82,14.82,0,0,1,101.19,413Z"></path></g><polygon points="132.46 412.06 132.46 414.18 87.23 415.61 87.23 412.06 132.46 412.06" style="opacity:0.1"></polygon><rect x="86.09" y="402.06" width="45.24" height="10" style="fill:#407BFF"></rect><g style="opacity:0.1"><path d="M129.29,411a14.77,14.77,0,0,1-.5-4,14.11,14.11,0,0,1,.5-4,14.11,14.11,0,0,1,.5,4A14.77,14.77,0,0,1,129.29,411Z"></path><path d="M125.92,411a14.77,14.77,0,0,1-.5-4,14.48,14.48,0,0,1,.5-4,14.11,14.11,0,0,1,.5,4A14.39,14.39,0,0,1,125.92,411Z"></path><path d="M124.27,411a16.57,16.57,0,0,1,0-8,16.25,16.25,0,0,1,0,8Z"></path><path d="M115.24,411a14.77,14.77,0,0,1-.5-4,14.48,14.48,0,0,1,.5-4,14.11,14.11,0,0,1,.5,4A14.77,14.77,0,0,1,115.24,411Z"></path><path d="M112.8,411a16.25,16.25,0,0,1,0-8,16.25,16.25,0,0,1,0,8Z"></path><path d="M102.69,411a14.77,14.77,0,0,1-.5-4,14.11,14.11,0,0,1,.5-4,14.48,14.48,0,0,1,.5,4A14.77,14.77,0,0,1,102.69,411Z"></path><path d="M100.35,411a16.25,16.25,0,0,1,0-8,16.25,16.25,0,0,1,0,8Z"></path><path d="M96.07,411a16.25,16.25,0,0,1,0-8,16.25,16.25,0,0,1,0,8Z"></path><path d="M104.64,411a16.25,16.25,0,0,1,0-8,14.11,14.11,0,0,1,.5,4A14.39,14.39,0,0,1,104.64,411Z"></path><path d="M121.29,411a14.39,14.39,0,0,1-.5-4,14.11,14.11,0,0,1,.5-4,14.48,14.48,0,0,1,.5,4A14.77,14.77,0,0,1,121.29,411Z"></path><path d="M109.58,411a14.77,14.77,0,0,1-.5-4,14.48,14.48,0,0,1,.5-4,14.11,14.11,0,0,1,.5,4A14.77,14.77,0,0,1,109.58,411Z"></path><path d="M107.9,411a16.25,16.25,0,0,1,0-8,16.25,16.25,0,0,1,0,8Z"></path><path d="M90.48,411a16.25,16.25,0,0,1,0-8,16.25,16.25,0,0,1,0,8Z"></path><path d="M88,411a14.77,14.77,0,0,1-.5-4,14.48,14.48,0,0,1,.5-4,14.11,14.11,0,0,1,.5,4A14.39,14.39,0,0,1,88,411Z"></path><path d="M94.08,411a16.25,16.25,0,0,1,0-8,16.25,16.25,0,0,1,0,8Z"></path><path d="M117.19,411a16.25,16.25,0,0,1,0-8,16.25,16.25,0,0,1,0,8Z"></path></g><polygon points="131.32 402.06 131.32 404.18 86.09 405.61 86.09 402.06 131.32 402.06" style="opacity:0.1"></polygon><rect x="83.33" y="392.06" width="45.24" height="10" style="fill:#407BFF"></rect><g style="opacity:0.1"><path d="M85.2,393a14.77,14.77,0,0,1,.5,4,14.48,14.48,0,0,1-.5,4,14.11,14.11,0,0,1-.5-4A14.39,14.39,0,0,1,85.2,393Z"></path><path d="M88.57,393a16.25,16.25,0,0,1,0,8,14.11,14.11,0,0,1-.5-4A14.39,14.39,0,0,1,88.57,393Z"></path><path d="M90.21,393a16.25,16.25,0,0,1,0,8,16.25,16.25,0,0,1,0-8Z"></path><path d="M99.25,393a16.25,16.25,0,0,1,0,8,14.11,14.11,0,0,1-.5-4A14.39,14.39,0,0,1,99.25,393Z"></path><path d="M101.69,393a16.25,16.25,0,0,1,0,8,16.25,16.25,0,0,1,0-8Z"></path><path d="M111.8,393a14.77,14.77,0,0,1,.5,4,14.48,14.48,0,0,1-.5,4,14.11,14.11,0,0,1-.5-4A14.77,14.77,0,0,1,111.8,393Z"></path><path d="M114.13,393a16.25,16.25,0,0,1,0,8,16.57,16.57,0,0,1,0-8Z"></path><path d="M118.42,393a16.25,16.25,0,0,1,0,8,16.25,16.25,0,0,1,0-8Z"></path><path d="M109.85,393a16.25,16.25,0,0,1,0,8,16.25,16.25,0,0,1,0-8Z"></path><path d="M93.2,393a14.77,14.77,0,0,1,.5,4,14.11,14.11,0,0,1-.5,4,14.48,14.48,0,0,1-.5-4A14.77,14.77,0,0,1,93.2,393Z"></path><path d="M104.91,393a14.77,14.77,0,0,1,.5,4,14.48,14.48,0,0,1-.5,4,14.11,14.11,0,0,1-.5-4A14.39,14.39,0,0,1,104.91,393Z"></path><path d="M106.59,393a16.25,16.25,0,0,1,0,8,16.25,16.25,0,0,1,0-8Z"></path><path d="M124,393a14.39,14.39,0,0,1,.5,4,14.11,14.11,0,0,1-.5,4,16.25,16.25,0,0,1,0-8Z"></path><path d="M126.54,393a16.25,16.25,0,0,1,0,8,14.11,14.11,0,0,1-.5-4A14.39,14.39,0,0,1,126.54,393Z"></path><path d="M120.41,393a16.25,16.25,0,0,1,0,8,16.25,16.25,0,0,1,0-8Z"></path><path d="M97.3,393a16.25,16.25,0,0,1,0,8,16.25,16.25,0,0,1,0-8Z"></path></g><polygon points="128.57 392.06 128.57 394.19 83.33 395.61 83.33 392.06 128.57 392.06" style="opacity:0.1"></polygon><rect x="83.33" y="422.05" width="45.24" height="10" style="fill:#407BFF"></rect><g style="opacity:0.1"><path d="M126.54,431a16.21,16.21,0,0,1,0-8,16.21,16.21,0,0,1,0,8Z"></path><path d="M123.17,431a14.39,14.39,0,0,1-.5-4,14,14,0,0,1,.5-4,14.36,14.36,0,0,1,.5,4A14.77,14.77,0,0,1,123.17,431Z"></path><path d="M121.52,431a16.21,16.21,0,0,1,0-8,16.21,16.21,0,0,1,0,8Z"></path><path d="M112.49,431a14.39,14.39,0,0,1-.5-4,14,14,0,0,1,.5-4,16.21,16.21,0,0,1,0,8Z"></path><path d="M110,431a16.21,16.21,0,0,1,0-8,16.21,16.21,0,0,1,0,8Z"></path><path d="M99.94,431a16.21,16.21,0,0,1,0-8,16.21,16.21,0,0,1,0,8Z"></path><path d="M97.6,431a16.21,16.21,0,0,1,0-8,14,14,0,0,1,.5,4A14.39,14.39,0,0,1,97.6,431Z"></path><path d="M93.31,431a16.21,16.21,0,0,1,0-8,16.21,16.21,0,0,1,0,8Z"></path><path d="M101.89,431a14.77,14.77,0,0,1-.5-4,14,14,0,0,1,.5-4,14.36,14.36,0,0,1,.5,4A14.77,14.77,0,0,1,101.89,431Z"></path><path d="M118.54,431a16.21,16.21,0,0,1,0-8,16.21,16.21,0,0,1,0,8Z"></path><path d="M106.83,431a14.39,14.39,0,0,1-.5-4,14,14,0,0,1,.5-4,16.21,16.21,0,0,1,0,8Z"></path><path d="M105.14,431a16.21,16.21,0,0,1,0-8,16.21,16.21,0,0,1,0,8Z"></path><path d="M87.73,431a16.21,16.21,0,0,1,0-8,16.21,16.21,0,0,1,0,8Z"></path><path d="M85.2,431a14.39,14.39,0,0,1-.5-4,14,14,0,0,1,.5-4,14.36,14.36,0,0,1,.5,4A14.77,14.77,0,0,1,85.2,431Z"></path><path d="M91.32,431a16.21,16.21,0,0,1,0-8,16.21,16.21,0,0,1,0,8Z"></path><path d="M114.44,431a14.77,14.77,0,0,1-.5-4,14.36,14.36,0,0,1,.5-4,14,14,0,0,1,.5,4A14.77,14.77,0,0,1,114.44,431Z"></path></g><polygon points="128.57 422.05 128.57 424.17 83.33 425.6 83.33 422.05 128.57 422.05" style="opacity:0.1"></polygon><rect x="128.57" y="452.83" width="45.24" height="10" style="fill:#407BFF"></rect><g style="opacity:0.1"><path d="M130.44,453.75a16.21,16.21,0,0,1,0,8,16.21,16.21,0,0,1,0-8Z"></path><path d="M133.81,453.75a16.21,16.21,0,0,1,0,8,16.21,16.21,0,0,1,0-8Z"></path><path d="M135.45,453.75a14.36,14.36,0,0,1,.5,4,14,14,0,0,1-.5,4,16.21,16.21,0,0,1,0-8Z"></path><path d="M144.49,453.75a16.21,16.21,0,0,1,0,8,16.21,16.21,0,0,1,0-8Z"></path><path d="M146.93,453.75a14.36,14.36,0,0,1,.5,4,14,14,0,0,1-.5,4,14.39,14.39,0,0,1-.5-4A14.75,14.75,0,0,1,146.93,453.75Z"></path><path d="M157,453.75a16.21,16.21,0,0,1,0,8,16.21,16.21,0,0,1,0-8Z"></path><path d="M159.37,453.75a16.21,16.21,0,0,1,0,8,16.21,16.21,0,0,1,0-8Z"></path><path d="M163.66,453.75a14.75,14.75,0,0,1,.5,4,14,14,0,0,1-.5,4,14.39,14.39,0,0,1-.5-4A14.75,14.75,0,0,1,163.66,453.75Z"></path><path d="M155.09,453.75a16.53,16.53,0,0,1,0,8,16.21,16.21,0,0,1,0-8Z"></path><path d="M138.44,453.75a16.21,16.21,0,0,1,0,8,14,14,0,0,1-.5-4A14.36,14.36,0,0,1,138.44,453.75Z"></path><path d="M150.15,453.75a16.21,16.21,0,0,1,0,8,16.21,16.21,0,0,1,0-8Z"></path><path d="M151.83,453.75a14.36,14.36,0,0,1,.5,4,14,14,0,0,1-.5,4,14.39,14.39,0,0,1-.5-4A14.75,14.75,0,0,1,151.83,453.75Z"></path><path d="M169.25,453.75a14.75,14.75,0,0,1,.5,4,14.39,14.39,0,0,1-.5,4,14,14,0,0,1-.5-4A14.36,14.36,0,0,1,169.25,453.75Z"></path><path d="M171.78,453.75a16.21,16.21,0,0,1,0,8,16.21,16.21,0,0,1,0-8Z"></path><path d="M165.65,453.75a14.36,14.36,0,0,1,.5,4,14,14,0,0,1-.5,4,14.39,14.39,0,0,1-.5-4A14.75,14.75,0,0,1,165.65,453.75Z"></path><path d="M142.53,453.75a16.21,16.21,0,0,1,0,8,16.21,16.21,0,0,1,0-8Z"></path></g><polygon points="173.81 452.83 173.81 454.95 128.57 456.38 128.57 452.83 173.81 452.83" style="opacity:0.1"></polygon><rect x="136.15" y="442.83" width="45.24" height="10" style="fill:#407BFF"></rect><g style="opacity:0.1"><path d="M138,443.75a16.25,16.25,0,0,1,0,8,16.25,16.25,0,0,1,0-8Z"></path><path d="M141.38,443.75a16.25,16.25,0,0,1,0,8,16.25,16.25,0,0,1,0-8Z"></path><path d="M143,443.75a16.25,16.25,0,0,1,0,8,14.07,14.07,0,0,1-.5-4A14.43,14.43,0,0,1,143,443.75Z"></path><path d="M152.06,443.75a16.25,16.25,0,0,1,0,8,16.25,16.25,0,0,1,0-8Z"></path><path d="M154.51,443.75a16.25,16.25,0,0,1,0,8,16.25,16.25,0,0,1,0-8Z"></path><path d="M164.61,443.75a16.25,16.25,0,0,1,0,8,16.25,16.25,0,0,1,0-8Z"></path><path d="M167,443.75a14.82,14.82,0,0,1,.5,4,14.43,14.43,0,0,1-.5,4,14.07,14.07,0,0,1-.5-4A14.43,14.43,0,0,1,167,443.75Z"></path><path d="M171.24,443.75a16.25,16.25,0,0,1,0,8,16.25,16.25,0,0,1,0-8Z"></path><path d="M162.66,443.75a14.43,14.43,0,0,1,.5,4,14.07,14.07,0,0,1-.5,4,16.25,16.25,0,0,1,0-8Z"></path><path d="M146,443.75a16.25,16.25,0,0,1,0,8,16.25,16.25,0,0,1,0-8Z"></path><path d="M157.72,443.75a16.25,16.25,0,0,1,0,8,16.25,16.25,0,0,1,0-8Z"></path><path d="M159.41,443.75a16.25,16.25,0,0,1,0,8,16.25,16.25,0,0,1,0-8Z"></path><path d="M176.83,443.75a16.25,16.25,0,0,1,0,8,16.25,16.25,0,0,1,0-8Z"></path><path d="M179.35,443.75a16.25,16.25,0,0,1,0,8,16.25,16.25,0,0,1,0-8Z"></path><path d="M173.23,443.75a16.25,16.25,0,0,1,0,8,16.25,16.25,0,0,1,0-8Z"></path><path d="M150.11,443.75a14.43,14.43,0,0,1,.5,4,14.07,14.07,0,0,1-.5,4,14.43,14.43,0,0,1-.5-4A14.82,14.82,0,0,1,150.11,443.75Z"></path></g><polygon points="181.38 442.83 181.38 444.96 136.15 446.39 136.15 442.83 181.38 442.83" style="opacity:0.1"></polygon><rect x="132.36" y="432.92" width="45.24" height="10" style="fill:#407BFF"></rect><g style="opacity:0.1"><path d="M175.57,441.83a16.21,16.21,0,0,1,0-8,16.21,16.21,0,0,1,0,8Z"></path><path d="M172.2,441.83a14.36,14.36,0,0,1-.5-4,14,14,0,0,1,.5-4,16.21,16.21,0,0,1,0,8Z"></path><path d="M170.55,441.83a16.21,16.21,0,0,1,0-8,14,14,0,0,1,.5,4A14.36,14.36,0,0,1,170.55,441.83Z"></path><path d="M161.52,441.83a16.21,16.21,0,0,1,0-8,16.21,16.21,0,0,1,0,8Z"></path><path d="M159.07,441.83a16.21,16.21,0,0,1,0-8,16.21,16.21,0,0,1,0,8Z"></path><path d="M149,441.83a16.21,16.21,0,0,1,0-8,16.21,16.21,0,0,1,0,8Z"></path><path d="M146.63,441.83a14.75,14.75,0,0,1-.5-4,14.39,14.39,0,0,1,.5-4,14,14,0,0,1,.5,4A14.36,14.36,0,0,1,146.63,441.83Z"></path><path d="M142.34,441.83a16.21,16.21,0,0,1,0-8,16.21,16.21,0,0,1,0,8Z"></path><path d="M150.92,441.83a14.36,14.36,0,0,1-.5-4,14,14,0,0,1,.5-4,14.39,14.39,0,0,1,.5,4A14.75,14.75,0,0,1,150.92,441.83Z"></path><path d="M167.57,441.83a16.21,16.21,0,0,1,0-8,16.21,16.21,0,0,1,0,8Z"></path><path d="M155.86,441.83a16.21,16.21,0,0,1,0-8,16.21,16.21,0,0,1,0,8Z"></path><path d="M154.17,441.83a16.21,16.21,0,0,1,0-8,16.21,16.21,0,0,1,0,8Z"></path><path d="M136.75,441.83a16.21,16.21,0,0,1,0-8,16.21,16.21,0,0,1,0,8Z"></path><path d="M134.23,441.83a14.36,14.36,0,0,1-.5-4,14,14,0,0,1,.5-4,16.21,16.21,0,0,1,0,8Z"></path><path d="M140.35,441.83a16.21,16.21,0,0,1,0-8,16.21,16.21,0,0,1,0,8Z"></path><path d="M163.47,441.83a14.75,14.75,0,0,1-.5-4,14,14,0,0,1,.5-4,14.39,14.39,0,0,1,.5,4A14.75,14.75,0,0,1,163.47,441.83Z"></path></g><polygon points="177.6 432.92 177.6 435.05 132.36 436.47 132.36 432.92 177.6 432.92" style="opacity:0.1"></polygon><path d="M79.56,417.08c29.78,5.34,21.91,49.45-7.91,44.1S49.73,411.73,79.56,417.08Z" style="fill:#407BFF"></path><path d="M79.56,417.08c29.78,5.34,21.91,49.45-7.91,44.1S49.73,411.73,79.56,417.08Z" style="opacity:0.1"></path><path d="M76.76,416.58c28.38,5.09,20.52,49.2-7.91,44.1S48.34,411.48,76.76,416.58Z" style="fill:#407BFF"></path><path d="M54.81,439.67c.15,7.85,4.73,15.47,14.72,17.26,23.58,4.23,30.12-32.38,6.56-36.6l-.46-.08c22.09,4.42,15.76,39.07-6.73,35C59.72,453.64,55.3,446.85,54.81,439.67Z" style="opacity:0.1"></path><g style="opacity:0.1"><path d="M75.26,424.9a.77.77,0,0,1,.55.91L75.5,427a10.08,10.08,0,0,1,4.86,3.46.85.85,0,0,1,.25.8.78.78,0,0,1-1,.56.73.73,0,0,1-.5-.35,8.84,8.84,0,0,0-4-3.09L73,436.87c4.36,2.11,5.87,4.32,5.13,7.29-.8,3.21-4.06,4.81-7.88,4l-.59,2.36a.75.75,0,0,1-.9.55.76.76,0,0,1-.55-.91l.6-2.39a11.73,11.73,0,0,1-6.08-4.63.79.79,0,0,1,.77-1.29.75.75,0,0,1,.49.35,10.14,10.14,0,0,0,5.22,4.22l2.15-8.62c-4.29-2.13-5.75-4.27-5-7.29s4-4.73,7.73-3.89l.28-1.16A.76.76,0,0,1,75.26,424.9Zm-3.53,11.33L73.79,428c-3-.67-5.33.6-5.87,2.78S68.06,434.32,71.73,436.23Zm.87,2.18-2.09,8.36c3,.69,5.45-.57,6-2.87C77.05,441.81,76.31,440.27,72.6,438.41Z"></path></g></g></svg>